<?xml version="1.0" encoding="UTF-8"?>
<svg xmlns="http://www.w3.org/2000/svg" xmlns:xlink="http://www.w3.org/1999/xlink" width="256pt" height="256pt" viewBox="0 0 256 256" version="1.1">
<g id="surface11">
<path style=" stroke:none;fill-rule:nonzero;fill:rgb(0%,0%,0%);fill-opacity:1;" d="M 144 54.648438 L 144 176 C 144 184.851562 136.851562 192 128 192 C 119.148438 192 112 184.851562 112 176 L 112 54.648438 L 75.300781 91.351562 C 69.050781 97.601562 58.898438 97.601562 52.648438 91.351562 C 46.398438 85.101562 46.398438 74.949219 52.648438 68.699219 L 116.648438 4.699219 C 122.898438 -1.550781 133.050781 -1.550781 139.300781 4.699219 L 203.300781 68.699219 C 209.550781 74.949219 209.550781 85.101562 203.300781 91.351562 C 197.050781 97.601562 186.898438 97.601562 180.648438 91.351562 Z M 32 176 L 96 176 C 96 193.648438 110.351562 208 128 208 C 145.648438 208 160 193.648438 160 176 L 224 176 C 241.648438 176 256 190.351562 256 208 L 256 224 C 256 241.648438 241.648438 256 224 256 L 32 256 C 14.351562 256 0 241.648438 0 224 L 0 208 C 0 190.351562 14.351562 176 32 176 Z M 216 228 C 222.648438 228 228 222.648438 228 216 C 228 209.351562 222.648438 204 216 204 C 209.351562 204 204 209.351562 204 216 C 204 222.648438 209.351562 228 216 228 Z M 216 228 "/>
</g>
</svg>
